<?xml version="1.0" encoding="UTF-8"?>
<svg id="Layer_1" data-name="Layer 1" xmlns="http://www.w3.org/2000/svg" viewBox="0 0 310.96 189.15">
  <defs>
    <style>
      .cls-1 {
        fill: none;
        stroke: #000;
        stroke-width: 2px;
      }
    </style>
  </defs>
  <g>
    <path d="M62.4,30.77v2.75h-1.58c-7.16,0-11.97,2.46-14.44,7.36-2.06,4.09-3.25,14.2-3.59,30.34h-21.52c-.29-16.2-1.51-26.37-3.64-30.51-2.46-4.79-7.23-7.19-14.31-7.19h-1.59v-2.75h60.67Z"/>
    <path d="M119.3,125.9l-1.38,41.14H1.73v-2.85h1.59c7.08,0,11.85-2.38,14.31-7.13,2.47-4.76,3.71-17.65,3.71-38.66v-.27h21.35v7.77c0,16.86,1.76,27.26,5.27,31.21,3.51,3.93,11.15,5.89,22.9,5.89,14.25,0,24.95-2.92,32.1-8.75,7.15-5.84,11.65-15.3,13.48-28.35h2.86Z"/>
  </g>
  <g>
    <path d="M206.13,71.22c-.2-1.58-.3-3.22-.3-4.92,0-11.09,3.56-20.3,10.68-27.65,7.13-7.36,15.97-11.04,26.54-11.04,6.89,0,13.41,1.25,19.55,3.75,6.13,2.49,9.24,3.73,9.31,3.73,1.5,0,2.59-.38,3.29-1.13.69-.75,1.23-2.14,1.63-4.19h2.95l1.86,37.92h-2.46c-3.93-12.47-8.69-21.56-14.27-27.27-5.58-5.72-12.45-8.58-20.58-8.58-6.17,0-11.24,2.01-15.21,6.02-3.98,4-5.96,9.18-5.96,15.54,0,5.85,1.71,10.76,5.12,14.73.86.99,1.94,2.03,3.24,3.09h-25.39Z"/>
    <path d="M291.7,128.63c0,12.21-4.19,22.25-12.56,30.12-8.38,7.88-19.19,11.82-32.44,11.82-6.7,0-13.77-1.35-21.23-4.02-7.45-2.7-11.6-4.05-12.46-4.05-1.5,0-2.69.46-3.58,1.38-.89.92-1.5,2.33-1.83,4.23h-3.25l-1.77-42.73h2.56c2.43,12.86,7.19,22.87,14.27,30.04,7.09,7.16,15.8,10.73,26.1,10.73,7.68,0,13.84-2.49,18.46-7.48,4.63-5,6.94-11.59,6.94-19.79,0-6.9-1.98-12.75-5.92-17.54-.88-1.07-1.91-2.14-3.1-3.21h28.84c.65,3.22.97,6.72.97,10.5Z"/>
  </g>
  <line class="cls-1" x1="155.77" y1="71.22" x2="155.77" y2="1.19"/>
  <line class="cls-1" x1="155.77" y1="187.97" x2="155.77" y2="118.13"/>
  <g>
    <path d="M5.17,81.98v22.75h7v2.63H2.34v-25.38h2.83Z"/>
    <path d="M15.36,94.69c0-2.33.59-4.51,1.77-6.52,1.18-2.03,2.79-3.64,4.83-4.83,2.04-1.19,4.25-1.79,6.63-1.79s4.55.58,6.58,1.75c2.04,1.17,3.66,2.77,4.85,4.81,1.21,2.04,1.81,4.24,1.81,6.58s-.59,4.52-1.77,6.54c-1.18,2.02-2.79,3.61-4.83,4.79-2.03,1.18-4.24,1.77-6.65,1.77s-4.54-.58-6.58-1.75-3.66-2.76-4.85-4.79c-1.2-2.04-1.79-4.23-1.79-6.56ZM28.56,84.17c-1.89,0-3.64.49-5.23,1.46-1.58.96-2.84,2.24-3.77,3.85-.92,1.6-1.38,3.33-1.38,5.19s.47,3.6,1.42,5.23c.94,1.61,2.21,2.9,3.81,3.85,1.61.95,3.33,1.42,5.17,1.42s3.63-.48,5.25-1.44c1.63-.97,2.89-2.26,3.79-3.88.92-1.63,1.38-3.35,1.38-5.19s-.47-3.65-1.4-5.27c-.93-1.63-2.2-2.9-3.81-3.83-1.6-.93-3.34-1.4-5.23-1.4Z"/>
    <path d="M56.7,80.75l11.42,26.6h-3.13l-3-7.21h-10.85l-3.06,7.21h-3.08l11.71-26.6ZM52.29,97.52h8.58l-4.23-10.17-4.35,10.17Z"/>
    <path d="M72.73,80.9l19.79,20.73v-19.65h2.83v26.52l-19.79-20.71v19.56h-2.83v-26.46Z"/>
    <path d="M113.08,94.69c0-2.33.59-4.51,1.77-6.52,1.18-2.03,2.79-3.64,4.83-4.83,2.04-1.19,4.25-1.79,6.63-1.79s4.55.58,6.58,1.75c2.04,1.17,3.66,2.77,4.85,4.81,1.21,2.04,1.81,4.24,1.81,6.58s-.59,4.52-1.77,6.54c-1.18,2.02-2.79,3.61-4.83,4.79-2.03,1.18-4.24,1.77-6.65,1.77s-4.54-.58-6.58-1.75-3.66-2.76-4.85-4.79c-1.2-2.04-1.79-4.23-1.79-6.56ZM126.29,84.17c-1.89,0-3.64.49-5.23,1.46-1.58.96-2.84,2.24-3.77,3.85-.92,1.6-1.38,3.33-1.38,5.19s.47,3.6,1.42,5.23c.94,1.61,2.21,2.9,3.81,3.85,1.61.95,3.33,1.42,5.17,1.42s3.63-.48,5.25-1.44c1.63-.97,2.89-2.26,3.79-3.88.92-1.63,1.38-3.35,1.38-5.19s-.47-3.65-1.4-5.27c-.93-1.63-2.2-2.9-3.81-3.83-1.6-.93-3.34-1.4-5.23-1.4Z"/>
    <path d="M145.24,80.9l19.79,20.73v-19.65h2.83v26.52l-19.79-20.71v19.56h-2.83v-26.46Z"/>
    <path d="M198.39,86.92c-.56-.98-1.18-1.69-1.85-2.1-.68-.43-1.51-.65-2.48-.65-1.24,0-2.26.39-3.06,1.15-.79.75-1.19,1.68-1.19,2.79,0,.85.33,1.58,1,2.19.67.6,1.46,1.11,2.4,1.54.94.43,1.8.81,2.56,1.13.76.31,1.65.77,2.67,1.4,1.01.63,1.78,1.41,2.31,2.35.54.95.81,2.02.81,3.23,0,1.41-.35,2.71-1.04,3.92-.7,1.21-1.66,2.17-2.9,2.88-1.24.71-2.58,1.06-4.04,1.06-1.99,0-3.7-.59-5.13-1.77-1.43-1.18-2.35-2.78-2.77-4.79l2.75-.77c.22,1.39.8,2.52,1.73,3.4.93.88,2.05,1.31,3.35,1.31,1.42,0,2.64-.48,3.67-1.44,1.04-.97,1.56-2.15,1.56-3.52,0-1.21-.4-2.19-1.19-2.96-.78-.78-2.22-1.58-4.31-2.42-2.08-.83-3.65-1.76-4.69-2.79-1.04-1.04-1.56-2.39-1.56-4.04,0-1.89.69-3.44,2.08-4.65,1.39-1.21,3.06-1.81,5.02-1.81,1.43,0,2.7.33,3.81,1,1.11.67,2.03,1.65,2.75,2.94l-2.27,1.44Z"/>
    <path d="M216.75,80.75l11.42,26.6h-3.13l-3-7.21h-10.85l-3.06,7.21h-3.08l11.71-26.6ZM212.33,97.52h8.58l-4.23-10.17-4.35,10.17Z"/>
    <path d="M235.44,81.98v22.75h7v2.63h-9.83v-25.38h2.83Z"/>
    <path d="M256.27,80.75l11.42,26.6h-3.13l-3-7.21h-10.85l-3.06,7.21h-3.08l11.71-26.6ZM251.85,97.52h8.58l-4.23-10.17-4.35,10.17Z"/>
    <path d="M276,81.98c6.05,0,9.08,2.33,9.08,7,0,1.95-.57,3.56-1.71,4.83-1.13,1.27-2.68,1.99-4.65,2.17l8.06,11.38h-3.46l-7.69-11.15h-.69v11.15h-2.83v-25.38h3.88ZM274.96,93.73h1.23c2,0,3.51-.36,4.52-1.1,1.03-.75,1.54-1.9,1.54-3.46,0-1.68-.5-2.86-1.5-3.54-1-.68-2.44-1.02-4.31-1.02h-1.48v9.13Z"/>
    <path d="M293.04,81.98l6.46,11.31,6.46-11.31h3.27l-8.31,14.46v10.92h-2.83v-10.92l-8.31-14.46h3.27Z"/>
  </g>
</svg>